# xmcd
#
# Track frame offsets:
#	150
#	23938
#	47560
#	61011
#	94346
#	107967
#	131471
#	148050
#	176487
#	198702
#	218186
#
# Disc length: 3146 seconds
#
# Revision: 2
# Processed by: cddbd v1.5.1PL2 Copyright (c) Steve Scherf et al.
# Submitted via: audiograbber 1.82.02
#
DISCID=a20c480b
DTITLE=Calvin Keys - Vertical Clearance
DYEAR=2005
DGENRE=Jazz
TTITLE0=MRKGY
TTITLE1=Spreading Spirit
TTITLE2=Unresolved Daydream
TTITLE3=Procede with Caution '06
TTITLE4=Secaucus S. Rutherford
TTITLE5=Vertical Clearance
TTITLE6=Seven and Sonny Straight Up
TTITLE7=Maximum Height
TTITLE8=Blue D
TTITLE9=Drunk Monk
TTITLE10=Last Exit
EXTD=
EXTT0=
EXTT1=
EXTT2=
EXTT3=
EXTT4=
EXTT5=
EXTT6=
EXTT7=
EXTT8=
EXTT9=
EXTT10=
PLAYORDER=
